<?xml version="1.0" encoding="utf-8"?>
<svg xmlns="http://www.w3.org/2000/svg" version="1.1" width="1024" height="1024">
  <path d="M 131.968 831.761 L 518.434 126.965 L 625.608 322.069 L 537.994 481.383 L 382.416 482.384 L 190.8 831.761 L 131.968 831.761 Z M 518.409 234.384 L 414.227 424.321 L 504.516 424.321 L 561.624 320.366 L 518.409 234.384 Z" fill="#c9a84c" style=""/>
  <path d="M -0.906 0.049 L 33.406 61.871 L -39.302 194.005 L -201.449 290.891 L -96 483 L -167 482.447 L -263.177 306.535 L -359.99 482.717 L -418.962 482.786 L -240.046 155.602 L -180.976 155.377 L -228.456 243.022 L -89.282 161.553 L -0.906 0.049 Z" fill="#c9a84c" transform="translate(641,349)"/>
  <path d="M -6.308 0.597 L 33.175 71.838 L -104 329 L 174.556 330.289 L 210 394 L -140.446 394.863 L -181.048 319.805 L -6.308 0.597 Z" fill="#c9a84c" transform="translate(695,437)"/>
</svg>